<?xml version="1.0" ?><svg viewBox="0 0 64 64" xmlns="http://www.w3.org/2000/svg"><defs><style>.cls-1{fill:#d1e7ff;}.cls-2{fill:#8bc4ff;}.cls-3{fill:#2e58ff;}</style></defs><title/><g id="Clipboard"><rect class="cls-1" height="49" rx="2" width="42" x="11" y="13"/><path class="cls-2" d="M43,8V18H21V8h7V6a4,4,0,0,1,8,0V8Z"/><path class="cls-3" d="M51,11H45V8a2,2,0,0,0-2-2H38A6,6,0,0,0,26,6H21a2,2,0,0,0-2,2v3H13a4,4,0,0,0-4,4V60a4,4,0,0,0,4,4H51a4,4,0,0,0,4-4V15A4,4,0,0,0,51,11ZM23,10h5a2,2,0,0,0,2-2V6a2,2,0,0,1,4,0V8a2,2,0,0,0,2,2h5v6H23ZM51,60H13V15h6v3a2,2,0,0,0,2,2H43a2,2,0,0,0,2-2V15h6Z"/><path class="cls-3" d="M45,28H19a2,2,0,0,0,0,4H45a2,2,0,0,0,0-4Z"/><path class="cls-3" d="M45,36H19a2,2,0,0,0,0,4H45a2,2,0,0,0,0-4Z"/><path class="cls-3" d="M45,44H19a2,2,0,0,0,0,4H45a2,2,0,0,0,0-4Z"/></g></svg>